<?xml version="1.0" encoding="UTF-8"?>
<svg id="Layer_1" xmlns="http://www.w3.org/2000/svg" viewBox="0 0 1924.75 340.97">
  <defs>
    <style>
      :root {
        --primary-fill: hsl(262.1 83.3% 57.8); /* Default color for light mode */
      }
  
      [data-theme="dark"] {
        --primary-fill: hsl(263.4 70% 50.4%); /* Color for dark mode */
      }
  
      .cls-1, .cls-2 {
        fill: var(--primary-fill);
      }

      .cls-2 {
        font-family: Geist-Bold, Geist;
        font-size: 317.18px;
        font-variation-settings: 'wght' 700;
        font-weight: 700;
      }

      .cls-3 {
        letter-spacing: -.03em;
      }

      .cls-4 {
        letter-spacing: -.01em;
      }

      .cls-5 {
        letter-spacing: -.03em;
      }

      .cls-6 {
        letter-spacing: 0em;
      }

      .cls-7 {
        letter-spacing: 0em;
      }
    </style>
  </defs>
  <text class="cls-2" transform="translate(383.57 271.19)"><tspan x="0" y="0">Fu</tspan><tspan class="cls-4" x="384.1" y="0">n</tspan><tspan x="573.78" y="0">d</tspan><tspan class="cls-7" x="775.51" y="0">l</tspan><tspan class="cls-5" x="877" y="0">e</tspan><tspan class="cls-3" x="1060.97" y="0">v</tspan><tspan class="cls-6" x="1245.57" y="0">e</tspan><tspan x="1437.15" y="0">l</tspan></text>
  <path class="cls-1" d="M256.69,123.01c0,16.55.02,32.61,0,48.66-.02,11.09-4.94,15.96-16.05,15.96-35.58,0-71.17,0-106.93.66,7.54,2.29,15.04,4.75,22.65,6.77,3.1.82,4.17,2.04,4.15,5.33-.15,23.17-.05,46.35-.1,69.52-.02,8.43-5.21,14.03-13.28,14.04-48.17.06-96.33.03-144.5.02-.79,0-1.58-.16-2.57-.27,0-17.56-.2-34.91.09-52.25.12-7.34,5.84-12.06,13.65-12.07,25.32-.05,50.65-.02,75.97-.02,1.8,0,3.59,0,5.96,0v-5.5c0-24.66,0-49.33,0-73.99,0-12.1,4.75-16.86,16.77-16.86,26.31,0,52.61,0,79.56,0,0-1.91,0-3.65,0-5.4,0-25.16,0-50.32,0-75.48,0-10.52,4.96-15.49,15.45-15.49,46.68,0,93.35,0,140.03,0,1.48,0,2.96,0,4.79,0,.12,1.45.3,2.71.3,3.97.02,15.06.04,30.12,0,45.19-.03,10.63-4.83,15.47-15.44,15.48-35.59.03-71.17.01-107,.87,8.71,2.66,17.42,5.32,26.48,8.09v22.77Z"/>
</svg>