<?xml version="1.0" encoding="UTF-8"?>
<svg id="Layer_1" xmlns="http://www.w3.org/2000/svg" viewBox="0 0 335.69 244.96">
  <defs>
    <style>
      :root {
        --primary-fill: hsl(262.1 83.3% 57.8); /* Default color for light mode */
      }
  
      [data-theme="dark"] {
        --primary-fill: hsl(263.4 70% 50.4%); /* Color for dark mode */
      }

      .cls-1 {
        fill: var(--primary-fill);
      }
    </style>
  </defs>
  <path class="cls-1" d="M244.33,91.73c0,15.75.02,31.04,0,46.32-.02,10.56-4.7,15.19-15.28,15.19-33.87,0-67.74,0-101.78.63,7.18,2.18,14.31,4.53,21.56,6.44,2.95.78,3.97,1.94,3.95,5.07-.15,22.06-.05,44.11-.09,66.17-.02,8.03-4.96,13.36-12.64,13.37-45.85.06-91.69.03-137.54.02-.75,0-1.51-.16-2.44-.26,0-16.71-.19-33.23.09-49.74.12-6.99,5.56-11.48,13-11.49,24.1-.05,48.21-.02,72.31-.02,1.71,0,3.42,0,5.67,0v-5.24c0-23.47,0-46.95,0-70.42,0-11.52,4.52-16.04,15.96-16.04,25.04,0,50.08,0,75.73,0,0-1.82,0-3.48,0-5.14,0-23.95,0-47.89,0-71.84,0-10.01,4.72-14.74,14.7-14.74,44.43,0,88.86,0,133.29,0,1.41,0,2.82,0,4.56,0,.11,1.38.29,2.58.29,3.78.02,14.34.04,28.67,0,43.01-.03,10.12-4.6,14.73-14.7,14.73-33.87.03-67.74.01-101.85.83,8.29,2.53,16.58,5.07,25.2,7.7v21.68Z"/>
</svg>